<svg width="138" height="36" viewBox="0 0 138 36" xmlns="http://www.w3.org/2000/svg" xmlns:xlink="http://www.w3.org/1999/xlink"><defs><path id="a" d="M0 29.302h96.525V.243H0v29.06z"/></defs><g fill="none" fill-rule="evenodd"><g transform="translate(0 6.296)"><mask id="b" fill="#fff"><use xlink:href="#a"/></mask><path d="M96.525 6.781V.97H79.833v27.607h16.692v-5.811H85.64V17.68h7.984v-5.813H85.64V6.781h10.886zm-83.462-.726a6.72 6.72 0 0 0-5.83 3.371 10.627 10.627 0 0 0-1.428 5.346c0 1.96.521 3.779 1.428 5.347a6.721 6.721 0 0 0 5.83 3.372c2.297 0 4.414-.762 6.115-2.048l3.332 4.763a15.888 15.888 0 0 1-9.447 3.096c-4.639 0-8.69-2.523-10.857-6.272A16.45 16.45 0 0 1 0 14.772c0-3.007.803-5.827 2.206-8.256C4.374 2.766 8.424.243 13.063.243c3.183 0 6.149.932 8.64 2.539l-2.99 4.988a10.106 10.106 0 0 0-5.65-1.715zm51.019 22.52h-4.355l-5.443-18.239v18.24h-5.806V.969h9.072l4.354 14.592L66.26.969h9.072v27.607h-5.806v-18.24l-5.443 18.24zM34.45 6.044l-2.725 10.909h5.449L34.45 6.043zm-5.628 22.533h-5.985L29.733.969h9.435l6.894 27.607h-5.985l-1.451-5.811h-8.352l-1.45 5.81z" fill="#1A1918" mask="url(#b)"/></g><path d="M117.572 2.906c0-1.604 1.3-2.906 2.903-2.906a2.905 2.905 0 0 1 2.903 2.906 2.904 2.904 0 1 1-5.806 0zm7.258 31.966h5.806V21.795h-5.806v13.077zm-7.258-7.265h5.806V14.53h-5.806v13.076zm7.258-14.53h13.063V7.265H124.83v5.812zm-14.515 0h13.063V7.265h-13.063v5.812z" fill="#00B0ED"/></g></svg>