<svg xmlns="http://www.w3.org/2000/svg" viewBox="0 0 1193.36 461.76"><defs><style>.d{fill:#fff}.e{fill:#1450f5}</style></defs><g id="b"><g id="c"><path class="e" d="M0 0h269.36v461.76H0zM307.84 0H577.2v461.76H307.84zM615.67 0h269.36v461.76H615.67zM924.01 0h269.36v461.76H924.01z"/><path class="d" d="M48.22 132.07h52.69v86.22l65.23-86.22h62.06l-72.02 93.02 76.96 104.6h-64.49l-67.74-93.63v93.63H48.22V132.07zM662.48 132.07h46.03l80.81 107.35V132.07h48.9v197.62h-43.94l-83.06-115.68v115.68h-48.74V132.07zM442.5 127.72c-56.79 0-102.47 41.93-102.47 103.12s45.68 103.2 102.47 103.2 102.49-42.02 102.49-103.2-45.68-103.12-102.49-103.12zm0 159.68c-28.08 0-49.78-23.01-49.78-56.55s21.69-56.55 49.78-56.55 49.77 23.09 49.77 56.55-21.77 56.55-49.77 56.55zM1133.44 175.62H1036v33.41h81.47l-.02 42.31H1036v33.51h97.44v44.86H983.93V132.05h149.51v43.57z"/></g></g></svg>