<svg width="70" height="41" viewBox="0 0 70 41" fill="none" xmlns="http://www.w3.org/2000/svg">
<rect width="70" height="22" rx="3" fill="#0081A7"/>
<path d="M3.08 5.264H6.088L8.152 9.288H7.736L9.936 5.264H12.936L9.176 11.544V16H6.632V11.544L3.08 5.264ZM18.0713 13.16L20.3913 5.264H23.0633L19.5113 16H16.8073L13.3193 5.264H16.0233L18.2953 13.16H18.0713ZM24.6798 16V5.264H31.8558V7.48H27.2398V9.544H31.5677V11.768H27.2398V13.76H31.8558V16H24.6798ZM34.4446 5.264H37.1166L41.4286 11.76H41.2526V5.264H43.8126V16H41.3406L36.5806 8.864H37.0046V16H34.4446V5.264ZM50.9319 16.256C49.9132 16.256 49.0225 16.0427 48.2599 15.616C47.5025 15.184 46.9132 14.5493 46.4919 13.712C46.0705 12.8693 45.8599 11.832 45.8599 10.6C45.8599 9.336 46.0705 8.29333 46.4919 7.472C46.9132 6.64533 47.5025 6.032 48.2599 5.632C49.0225 5.22667 49.9132 5.024 50.9319 5.024C51.9612 5.024 52.8572 5.23467 53.6199 5.656C54.3879 6.07733 54.9825 6.70133 55.4039 7.528C55.8252 8.35467 56.0359 9.37867 56.0359 10.6C56.0359 11.8533 55.8252 12.9013 55.4039 13.744C54.9825 14.5813 54.3879 15.2107 53.6199 15.632C52.8572 16.048 51.9612 16.256 50.9319 16.256ZM50.9319 13.96C51.6785 13.96 52.2759 13.6667 52.7239 13.08C53.1719 12.488 53.3959 11.656 53.3959 10.584C53.3959 9.576 53.1719 8.78133 52.7239 8.2C52.2759 7.61333 51.6785 7.32 50.9319 7.32C50.2065 7.32 49.6199 7.61333 49.1719 8.2C48.7239 8.78133 48.4999 9.58133 48.4999 10.6C48.4999 11.6613 48.7239 12.488 49.1719 13.08C49.6199 13.6667 50.2065 13.96 50.9319 13.96ZM57.8868 16V13.832L63.7828 6.672V7.592L57.8868 7.616V5.264H66.2468V7.4L60.9028 13.944V13.664L66.2468 13.648V16H57.8868Z" fill="#F2F2F2"/>
<rect y="22" width="70" height="19" rx="3" fill="white"/>
<path d="M7.952 37.208C7.25867 37.208 6.62133 37.0853 6.04 36.84C5.45867 36.5893 4.98933 36.2187 4.632 35.728C4.28 35.2373 4.096 34.624 4.08 33.888H5.568C5.568 34.3307 5.67467 34.6933 5.888 34.976C6.10667 35.2587 6.39467 35.4693 6.752 35.608C7.10933 35.7413 7.504 35.808 7.936 35.808C8.37333 35.808 8.76 35.7413 9.096 35.608C9.432 35.4747 9.69067 35.296 9.872 35.072C10.0587 34.848 10.152 34.592 10.152 34.304C10.152 33.9147 10.032 33.6027 9.792 33.368C9.552 33.128 9.18667 32.9253 8.696 32.76L6.8 32.056C5.984 31.752 5.36267 31.4027 4.936 31.008C4.50933 30.608 4.296 30.0533 4.296 29.344C4.296 28.5387 4.61067 27.8853 5.24 27.384C5.86933 26.8773 6.75467 26.624 7.896 26.624C8.97867 26.624 9.81867 26.8747 10.416 27.376C11.0187 27.8773 11.3627 28.56 11.448 29.424H9.952C9.87733 28.9867 9.672 28.64 9.336 28.384C9.00533 28.128 8.52533 28 7.896 28C7.288 28 6.81333 28.1333 6.472 28.4C6.13067 28.6613 5.96 28.992 5.96 29.392C5.96 29.7227 6.06667 29.9867 6.28 30.184C6.49867 30.3813 6.83733 30.56 7.296 30.72L9.456 31.512C10.1973 31.7733 10.776 32.1253 11.192 32.568C11.608 33.0107 11.816 33.5733 11.816 34.256C11.816 34.832 11.6667 35.3413 11.368 35.784C11.0693 36.2267 10.632 36.576 10.056 36.832C9.48 37.0827 8.77867 37.208 7.952 37.208ZM14.4346 37V26.808H20.8346V28.12H15.9546V31.224H20.5466V32.536H15.9546V35.672H20.8346V37H14.4346ZM23.6069 37V26.808H27.2549C28.4442 26.808 29.3482 27.0907 29.9669 27.656C30.5909 28.216 30.9029 28.9547 30.9029 29.872C30.9029 30.7787 30.5909 31.512 29.9669 32.072C29.3482 32.632 28.4442 32.912 27.2549 32.912H25.1269V37H23.6069ZM29.2309 37L26.4069 32.312H28.0469L31.2069 37H29.2309ZM25.1269 31.872H27.1189C27.8442 31.872 28.3962 31.6987 28.7749 31.352C29.1535 31 29.3429 30.5467 29.3429 29.992C29.3429 29.4213 29.1642 28.968 28.8069 28.632C28.4549 28.2907 27.9375 28.12 27.2549 28.12H25.1269V31.872ZM36.6065 35.36L39.4465 26.808H41.0545L37.4785 37H35.8865L32.3505 26.808H33.9665L36.7825 35.36H36.6065ZM42.8881 37V26.808H44.4081V37H42.8881ZM51.1448 37.208C50.2434 37.208 49.4648 36.9893 48.8088 36.552C48.1581 36.1093 47.6541 35.488 47.2968 34.688C46.9394 33.8827 46.7608 32.9387 46.7608 31.856C46.7608 30.7147 46.9501 29.7573 47.3288 28.984C47.7074 28.2053 48.2274 27.6187 48.8888 27.224C49.5554 26.824 50.3074 26.624 51.1448 26.624C52.2701 26.624 53.1661 26.904 53.8328 27.464C54.4994 28.0187 54.9421 28.7413 55.1608 29.632L53.5368 29.944C53.3448 29.352 53.0408 28.88 52.6248 28.528C52.2088 28.1707 51.7154 27.992 51.1448 27.992C50.6434 27.992 50.1848 28.136 49.7688 28.424C49.3528 28.712 49.0194 29.144 48.7688 29.72C48.5181 30.2907 48.3928 31.0027 48.3928 31.856C48.3928 32.6453 48.4968 33.3387 48.7048 33.936C48.9128 34.528 49.2194 34.9893 49.6248 35.32C50.0301 35.6507 50.5368 35.816 51.1448 35.816C51.8861 35.816 52.4701 35.6187 52.8968 35.224C53.3234 34.824 53.5368 34.304 53.5368 33.664H55.1768C55.1768 34.4107 55.0088 35.048 54.6728 35.576C54.3421 36.0987 53.8754 36.5013 53.2728 36.784C52.6701 37.0667 51.9608 37.208 51.1448 37.208ZM57.4503 37V26.808H63.8503V28.12H58.9703V31.224H63.5623V32.536H58.9703V35.672H63.8503V37H57.4503Z" fill="#0081A7"/>
</svg>
